<svg width="48" height="49" viewBox="0 0 48 49" fill="none" xmlns="http://www.w3.org/2000/svg">
<path d="M4 42.7383V10.2383L14 2.73828L24 10.2383V14.7383H44V42.7383H4ZM8 38.7383H12V34.7383H8V38.7383ZM8 30.7383H12V26.7383H8V30.7383ZM8 22.7383H12V18.7383H8V22.7383ZM8 14.7383H12V10.7383H8V14.7383ZM16 14.7383H20V10.7383H16V14.7383ZM16 38.7383H40V18.7383H16V38.7383ZM28 26.7383V22.7383H36V26.7383H28ZM28 34.7383V30.7383H36V34.7383H28ZM20 26.7383V22.7383H24V26.7383H20ZM20 34.7383V30.7383H24V34.7383H20Z" fill="white"/>
</svg>
