<svg width="38" height="38" viewBox="0 0 38 38" fill="none" xmlns="http://www.w3.org/2000/svg">
<path d="M37.5074 18.7191C37.5074 18.2943 37.2986 17.9208 36.9808 17.6866L36.9875 17.6751L32.512 15.0912L35.0882 10.6292L35.0795 10.6239C35.1608 10.4399 35.1976 10.2395 35.187 10.0387C35.1764 9.83789 35.1187 9.64241 35.0186 9.46804C34.9175 9.29396 34.7768 9.14614 34.6079 9.03656C34.4391 8.92698 34.2468 8.85872 34.0466 8.83732V8.82484H28.8779V3.67108H28.8674C28.8458 3.47117 28.7774 3.27914 28.6678 3.11054C28.5583 2.94193 28.4106 2.80147 28.2367 2.70052C28.0621 2.59987 27.8662 2.54197 27.665 2.53154C27.4638 2.52111 27.2629 2.55846 27.0789 2.64052L27.0727 2.62948L22.5218 5.257L20.0018 0.891879L19.9927 0.89716C19.874 0.734846 19.7188 0.602737 19.5396 0.511514C19.3604 0.42029 19.1622 0.372511 18.9611 0.37204C18.5363 0.37204 18.1624 0.580839 17.9287 0.898599L17.9171 0.891879L15.3554 5.329L10.9442 2.78212L10.9389 2.79124C10.755 2.71002 10.5545 2.67322 10.3537 2.68381C10.1529 2.6944 9.95744 2.75208 9.78307 2.8522C9.6089 2.95324 9.46098 3.0939 9.35132 3.26277C9.24165 3.43165 9.17332 3.62399 9.15187 3.8242H9.13891V8.94772H4.04515V8.9578C3.84523 8.97942 3.65321 9.04778 3.48461 9.15735C3.316 9.26692 3.17554 9.41462 3.07459 9.58852C2.97439 9.76305 2.9167 9.95872 2.90619 10.1597C2.89569 10.3607 2.93266 10.5613 3.01411 10.7453L3.00307 10.752L5.52115 15.1138L1.01203 17.7173L1.01731 17.7264C0.854994 17.8451 0.722885 18.0003 0.631662 18.1795C0.540438 18.3587 0.492659 18.5569 0.492188 18.758C0.492188 19.1828 0.700988 19.5567 1.01875 19.7904L1.01203 19.802L5.48755 22.3858L2.91139 26.8479L2.92003 26.8527C2.83881 27.0366 2.802 27.2371 2.81259 27.4379C2.82318 27.6387 2.88087 27.8341 2.98099 28.0085C3.08208 28.1826 3.22277 28.3304 3.39164 28.44C3.56051 28.5496 3.75282 28.6178 3.95299 28.6392V28.6522H9.12115V33.8055H9.13171C9.17587 34.1972 9.39523 34.5639 9.76243 34.776C9.93712 34.8763 10.133 34.934 10.3341 34.9444C10.5353 34.9549 10.7361 34.9177 10.9202 34.836L10.9264 34.8471L15.4773 32.2196L17.9973 36.5847L18.0064 36.5794C18.1251 36.7417 18.2803 36.8738 18.4595 36.965C18.6387 37.0563 18.8369 37.104 19.0379 37.1045C19.4627 37.1045 19.8367 36.8957 20.0704 36.5784L20.0815 36.5847L22.6432 32.1476L27.0549 34.6944L27.0602 34.6853C27.2441 34.7665 27.4446 34.8033 27.6454 34.7928C27.8462 34.7822 28.0417 34.7245 28.216 34.6244C28.3902 34.5233 28.5381 34.3827 28.6478 34.2138C28.7574 34.0449 28.8258 33.8526 28.8472 33.6524H28.8602V28.5293H33.9544V28.5192C34.1543 28.4976 34.3464 28.4293 34.515 28.3197C34.6836 28.2101 34.824 28.0624 34.925 27.8885C35.0253 27.7139 35.083 27.5182 35.0935 27.3171C35.104 27.116 35.067 26.9153 34.9855 26.7312L34.9965 26.725L32.4784 22.3632L36.9875 19.7597L36.9823 19.7506C37.1446 19.6319 37.2767 19.4767 37.3679 19.2975C37.4591 19.1183 37.5069 18.9202 37.5074 18.7191ZM15.9827 24.1887L11.2567 22.1007L13.3423 25.7127L12.1634 26.3933L8.96563 20.8556L10.1776 20.1552L14.752 22.153L12.7432 18.674L13.9226 17.9933L17.1194 23.5311L15.9827 24.1887ZM18.2157 22.8994L15.0184 17.3612L18.9376 15.0989L19.5367 16.1367L16.7963 17.7183L17.4674 18.8808L20.1491 17.3328L20.7482 18.3696L18.0664 19.9186L18.7951 21.1805L21.5354 19.5989L22.1344 20.6367L18.2157 22.8994ZM27.2906 17.6602L24.1235 14.4183L25.3557 18.7767L24.1024 19.5005L19.3192 14.8786L20.6392 14.1164L23.9215 17.557L22.6653 12.9466L23.5869 12.4148L26.9435 15.8127L25.6043 11.2498L26.9243 10.4876L28.5443 16.9368L27.2906 17.6602Z" fill="white"/>
</svg>
