<svg width="49" height="48" viewBox="0 0 49 48" fill="none" xmlns="http://www.w3.org/2000/svg">
<path fill-rule="evenodd" clip-rule="evenodd" d="M43.4802 23.16L25.4802 5.16C25.1094 4.79077 24.6695 4.49827 24.1857 4.29923C23.7018 4.10018 23.1834 3.9985 22.6602 4H8.66016C7.59929 4 6.58188 4.42143 5.83173 5.17157C5.08158 5.92172 4.66016 6.93914 4.66016 8V22C4.65974 22.5278 4.76379 23.0505 4.96631 23.5379C5.16883 24.0254 5.46582 24.4679 5.84016 24.84L23.8402 42.84C24.2113 43.21 24.6518 43.503 25.1364 43.7024C25.6211 43.9017 26.1403 44.0033 26.6643 44.0015C27.1883 43.9996 27.7068 43.8943 28.1901 43.6915C28.6733 43.4888 29.1117 43.1926 29.4802 42.82L43.4802 28.82C44.2202 28.1 44.6602 27.1 44.6602 26C44.6602 24.9 44.2002 23.88 43.4802 23.16ZM11.6602 14C11.2662 14 10.8761 13.9224 10.5121 13.7716C10.1481 13.6209 9.81741 13.3999 9.53884 13.1213C9.26026 12.8427 9.03928 12.512 8.88852 12.1481C8.73775 11.7841 8.66016 11.394 8.66016 11C8.66016 10.606 8.73775 10.2159 8.88852 9.85195C9.03928 9.48797 9.26026 9.15726 9.53884 8.87868C9.81741 8.6001 10.1481 8.37913 10.5121 8.22836C10.8761 8.0776 11.2662 8 11.6602 8C12.4558 8 13.2189 8.31607 13.7815 8.87868C14.3441 9.44129 14.6602 10.2044 14.6602 11C14.6602 11.7957 14.3441 12.5587 13.7815 13.1213C13.2189 13.6839 12.4558 14 11.6602 14Z" fill="white"/>
</svg>
